<?xml version="1.0" encoding="UTF-8" standalone="no"?>
<!DOCTYPE svg PUBLIC "-//W3C//DTD SVG 1.1//EN" "http://www.w3.org/Graphics/SVG/1.1/DTD/svg11.dtd">
<svg xmlns="http://www.w3.org/2000/svg">
<metadata/>
<defs>
<font id="frutigernextltmedium" horiz-adv-x="1150">
<font-face units-per-em="2048" ascent="1638" descent="-410"/>
<missing-glyph horiz-adv-x="575"/>
<glyph horiz-adv-x="2048"/>
<glyph horiz-adv-x="2048"/>
<glyph unicode="&#xD;" horiz-adv-x="2048"/>
<glyph unicode=" " horiz-adv-x="575"/>
<glyph unicode="&#9;" horiz-adv-x="575"/>
<glyph unicode=" " horiz-adv-x="575"/>
<glyph unicode="!" horiz-adv-x="569" d="M166 1366h240l-35 -999h-170zM176 0v211h219v-211h-219z"/>
<glyph unicode="&quot;" horiz-adv-x="897" d="M205 940v426h166v-426h-166zM528 940v426h166v-426h-166z"/>
<glyph unicode="#" d="M70 416v131h182l43 274h-162v131h182l62 414h139l-63 -414h329l62 414h139l-61 -414h161v-131h-182l-43 -274h162v-131h-180l-62 -416h-139l61 416h-329l-62 -416h-137l61 416h-163zM391 547h328l43 274h-328z"/>
<glyph unicode="$" d="M154 1014q0 80 29.5 145t81 108.5t115 71t138.5 39.5v207h137v-199q153 0 283 -43l-12 -180q-115 56 -275 56q-52 0 -99 -9.5t-89.5 -30.5t-68 -61t-25.5 -94q0 -36 16.5 -67.5t50.5 -58t63.5 -43.5t75.5 -40l144 -70q50 -25 86.5 -46.5t78.5 -55.5t67.5 -69.5t43 -86 t17.5 -108.5q0 -167 -106.5 -267.5t-274.5 -125.5v-207h-135v198q-188 3 -332 60l10 190q141 -82 336 -82q58 0 107.5 13t89.5 39.5t63 71.5t23 104q0 33 -15 63.5t-35 52t-57 46t-64 39t-73 36.5l-141 70q-55 27 -97 56.5t-79.5 70t-57.5 93t-20 114.5z"/>
<glyph unicode="%" horiz-adv-x="1945" d="M145 965q0 63 9.5 120.5t34 113.5t61 96.5t95 65.5t132.5 25q75 0 133.5 -25t95 -65.5t60.5 -96.5t33.5 -113.5t9.5 -120.5q0 -64 -9.5 -121.5t-33 -113.5t-60 -96.5t-95.5 -65.5t-134 -25q-76 0 -135 25t-95.5 65t-60 96t-32.5 113.5t-9 122.5zM309 965q0 -38 1.5 -67.5 t7 -67t17 -65t29.5 -52t46.5 -37t66.5 -12.5q37 0 65.5 13t46.5 37.5t29.5 52t17 64.5t7.5 67t2 67q0 39 -2 69.5t-7.5 68t-17 64.5t-29.5 50.5t-46.5 36t-65.5 12.5q-53 0 -89 -27t-52 -75.5t-21.5 -94t-5.5 -104.5zM469 -49l868 1464h144l-869 -1464h-143zM1139 399 q0 63 9.5 120.5t33.5 113.5t60.5 97t95 66t132.5 25q75 0 133.5 -25t95 -66t60.5 -97t33.5 -113.5t9.5 -120.5q0 -64 -9.5 -121.5t-33 -113.5t-60 -96.5t-95.5 -65.5t-134 -25q-76 0 -135 25t-95 65t-59.5 96t-32.5 113.5t-9 122.5zM1305 399q0 -39 1.5 -67.5t6.5 -67 t16 -65t28.5 -51.5t46 -37.5t66.5 -12.5q37 0 65.5 13t46 37.5t29 52t17 65t7 66.5t1.5 67q0 40 -1.5 70t-7 67.5t-17 64t-29 50.5t-46 36.5t-65.5 12.5q-36 0 -64 -12.5t-45.5 -36.5t-29 -51t-17 -64t-7.5 -68t-2 -69z"/>
<glyph unicode="&amp;" horiz-adv-x="1372" d="M104 367q0 140 95.5 233.5t238.5 104.5q-142 13 -219.5 94.5t-77.5 212.5q0 90 41.5 162.5t113 118t164.5 69.5t199 24q185 0 345 -55l-9 -170q-156 72 -338 72q-125 0 -218 -59.5t-93 -163.5q0 -66 23.5 -112t68.5 -70.5t99.5 -35t126.5 -10.5h249v146h205v-146h215 v-149h-215v-594q-87 -26 -219 -44t-235 -18q-92 0 -171 11.5t-152 39.5t-124.5 71.5t-82 111.5t-30.5 156zM317 373q0 -68 28.5 -116.5t79 -74.5t109.5 -37.5t130 -11.5q131 0 249 37v463h-249q-74 0 -134.5 -14t-109 -43.5t-76 -81t-27.5 -121.5z"/>
<glyph unicode="'" horiz-adv-x="575" d="M205 940v426h166v-426h-166z"/>
<glyph unicode="(" horiz-adv-x="575" d="M102 608q0 220 83 429.5t229 439.5h153q-129 -243 -200.5 -449.5t-71.5 -419.5q0 -214 72 -422.5t200 -447.5h-153q-147 231 -229.5 440t-82.5 430z"/>
<glyph unicode=")" horiz-adv-x="575" d="M10 -262q130 242 202.5 449t72.5 421t-72.5 420.5t-202.5 448.5h154q70 -111 120 -205t96.5 -205t70.5 -227t24 -232q0 -220 -82.5 -430.5t-228.5 -439.5h-154z"/>
<glyph unicode="*" horiz-adv-x="847" d="M86 1061l47 151l236 -108l-23 262h160l-23 -262l234 108l47 -151l-242 -72l156 -221l-131 -82l-121 234l-123 -234l-133 82l160 221z"/>
<glyph unicode="+" d="M53 432v160h439v432h167v-432h441v-160h-441v-432h-167v432h-439z"/>
<glyph unicode="," horiz-adv-x="575" d="M72 -262l118 473h213l-180 -473h-151z"/>
<glyph unicode="-" horiz-adv-x="667" d="M82 551v168h504v-168h-504z"/>
<glyph unicode="." horiz-adv-x="575" d="M178 0v211h219v-211h-219z"/>
<glyph unicode="/" horiz-adv-x="616" d="M-47 0l536 1366h177l-537 -1366h-176z"/>
<glyph unicode="0" d="M84 682q0 73 6.5 141.5t23 139.5t41.5 132t64.5 115.5t89 93t117.5 60.5t149 22q112 0 200 -43t141.5 -111.5t88.5 -163t48.5 -189t13.5 -197.5q0 -104 -13 -198t-47.5 -189t-88 -163.5t-142 -111.5t-201.5 -43q-115 0 -203.5 42.5t-142 110t-87 162.5t-46 189t-12.5 201 zM305 682q0 -66 2.5 -118t11 -120t27 -117.5t47 -94.5t75 -69t107.5 -24q51 0 93 19t69.5 49.5t48 76.5t32 91.5t18 103.5t8.5 103.5t2 99.5q0 56 -2 102.5t-8.5 104.5t-18 103t-32 90.5t-48.5 75.5t-69 48.5t-93 18.5q-59 0 -105 -23.5t-74.5 -67.5t-47.5 -94t-28 -117 t-12 -121t-3 -120z"/>
<glyph unicode="1" d="M213 1090l358 276h189v-1366h-215v1139l-244 -197z"/>
<glyph unicode="2" d="M100 0v168l283 293q20 20 71 70.5t83.5 83t77.5 86t71.5 96t46 95.5t19.5 101q0 103 -75.5 163.5t-182.5 60.5q-150 0 -336 -93l-11 176q205 86 373 86q93 0 172.5 -21.5t143.5 -65t100.5 -117.5t36.5 -170q0 -59 -21 -121.5t-50 -112.5t-78 -111.5t-85.5 -100t-94 -98 t-83.5 -87.5l-199 -215h633v-166h-895z"/>
<glyph unicode="3" d="M96 31l13 170q137 -62 337 -62q61 0 119 15.5t107 45.5t78.5 81t29.5 116q0 62 -29.5 108.5t-79 72t-104 37.5t-112.5 12h-181v153h154q62 0 118.5 13.5t105.5 41t78.5 77t29.5 114.5q0 55 -29 96t-76.5 62.5t-97.5 31t-102 9.5q-152 0 -310 -66l-12 168q183 59 356 59 q70 0 136 -10.5t131.5 -36t114 -64t78.5 -99t30 -136.5q0 -127 -76 -213t-203 -118q132 -18 219 -102.5t87 -211.5q0 -87 -30.5 -158t-82 -118.5t-122 -80t-148.5 -47t-164 -14.5q-214 0 -363 54z"/>
<glyph unicode="4" d="M53 301v188l613 877h243v-901h197v-164h-197v-301h-211v301h-645zM209 463h491v721z"/>
<glyph unicode="5" d="M135 29l12 176q135 -60 295 -60q92 0 169 29.5t128.5 95.5t51.5 158q0 71 -26.5 123.5t-74 83t-105 45t-126.5 14.5q-134 0 -289 -49l12 721h768v-162h-567l-12 -389q70 23 176 23q97 0 180 -24t148.5 -71.5t103 -126.5t37.5 -180q0 -111 -45 -200.5t-121.5 -145 t-173 -84.5t-203.5 -29q-192 0 -338 52z"/>
<glyph unicode="6" d="M102 635q0 127 23 238t73 206.5t124 164t181.5 107t239.5 38.5q113 0 263 -35l-13 -170q-111 43 -248 43q-89 0 -162.5 -28.5t-122.5 -76.5t-83 -115t-49 -141.5t-15 -156.5q48 73 139 115t185 42q200 0 318 -116.5t118 -315.5q0 -209 -136.5 -333t-348.5 -124 q-110 0 -196 38t-139.5 100.5t-88 149.5t-48.5 177.5t-14 192.5zM324 434q0 -127 69.5 -214t194.5 -87q128 0 201 80t73 209q0 130 -68 209.5t-196 79.5q-126 0 -200 -75.5t-74 -201.5z"/>
<glyph unicode="7" d="M106 1188v178h910v-176l-522 -1190h-246l551 1188h-693z"/>
<glyph unicode="8" d="M74 346q0 261 311 363q-268 108 -268 346q0 82 44 148.5t113.5 104.5t147 58t153.5 20q65 0 128 -10.5t124 -36t107 -62.5t74 -94.5t28 -127.5q0 -116 -78.5 -202.5t-199.5 -143.5q72 -24 126 -53.5t100 -72t70.5 -102.5t24.5 -135q0 -76 -30.5 -139t-80.5 -104.5 t-116 -70.5t-135.5 -42t-141.5 -13q-91 0 -177 21.5t-160 64t-119 116t-45 167.5zM293 373q0 -112 81 -176t201 -64q121 0 203 63.5t82 176.5q0 44 -18.5 83.5t-45 66.5t-68.5 53.5t-75 41.5t-78 33q-282 -93 -282 -278zM330 1038q0 -167 248 -264q45 18 85 41.5t77.5 56 t60 76t22.5 90.5q0 95 -73.5 147t-174.5 52q-99 0 -172 -53.5t-73 -145.5z"/>
<glyph unicode="9" d="M80 930q0 206 139.5 331t343.5 125q160 0 272.5 -79.5t165 -210t52.5 -299.5q0 -144 -21 -265t-69 -225t-121.5 -176t-182.5 -113t-247 -41q-113 0 -267 35l11 172q113 -45 252 -45q92 0 163.5 26.5t118 71.5t78 111t47 137t21.5 158q-52 -74 -136.5 -112.5t-181.5 -38.5 q-196 0 -317 121t-121 317zM289 944q0 -133 66.5 -215t195.5 -82q126 0 201 78t75 205t-68.5 214t-193.5 87q-129 0 -202.5 -79t-73.5 -208z"/>
<glyph unicode=":" horiz-adv-x="575" d="M178 0v211h219v-211h-219zM178 815v209h219v-209h-219z"/>
<glyph unicode=";" horiz-adv-x="575" d="M72 -262l118 473h213l-180 -473h-151zM178 815v209h217v-209h-217z"/>
<glyph unicode="&lt;" d="M53 424v172l1047 418v-174l-854 -330l854 -328v-172z"/>
<glyph unicode="=" d="M53 227v158h1047v-158h-1047zM53 635v160h1047v-160h-1047z"/>
<glyph unicode="&gt;" d="M53 10v172l852 328l-852 330v174l1045 -418v-172z"/>
<glyph unicode="?" horiz-adv-x="872" d="M59 1331q185 55 324 55q83 0 156.5 -20.5t132.5 -61.5t93 -107.5t34 -152.5q0 -63 -19 -118t-49.5 -95.5t-67 -78.5t-73 -75t-67 -76t-49.5 -91.5t-19 -112.5v-30h-187v26q0 71 17 131t44.5 101.5t61 78t67 70t61 68t44.5 80.5t17 100q0 92 -67.5 143.5t-164.5 51.5 q-117 0 -276 -56zM252 0v211h219v-211h-219z"/>
<glyph unicode="@" horiz-adv-x="1572" d="M94 326q0 153 61.5 288t164.5 228.5t241.5 147.5t290.5 54q123 0 236.5 -40.5t200 -112.5t138.5 -181t52 -237q0 -206 -113 -339.5t-315 -133.5q-78 0 -133.5 34.5t-61.5 108.5q-97 -143 -248 -143q-97 0 -146.5 63.5t-49.5 163.5q0 133 65 249.5t178.5 186.5t247.5 70 q95 0 184 -28l-106 -500q-2 -10 -2 -29q0 -40 30.5 -57t73.5 -17q66 0 117 32.5t79.5 87.5t43 118.5t14.5 132.5q0 107 -41 193t-111.5 141t-162.5 84t-197 29q-162 0 -297.5 -79.5t-213.5 -216t-78 -298.5q0 -253 152.5 -394t408.5 -141q198 0 428 86l12 -131 q-248 -80 -469 -80q-194 0 -347.5 82t-240 233t-86.5 345zM545 233q0 -127 102 -127q46 0 87.5 26t70.5 68t49 87.5t31 91.5l55 239q-30 9 -66 9q-92 0 -169.5 -61.5t-118.5 -151.5t-41 -181z"/>
<glyph unicode="A" horiz-adv-x="1355" d="M4 0l533 1366h280l537 -1366h-234l-131 358h-633l-135 -358h-217zM412 522h522l-260 686z"/>
<glyph unicode="B" horiz-adv-x="1191" d="M164 0v1366h444q89 0 164.5 -17t140.5 -54t102.5 -105t37.5 -162q0 -125 -70.5 -206t-194.5 -109q134 -23 218 -108.5t84 -217.5q0 -387 -535 -387h-391zM381 154h143q66 0 120.5 10t106.5 34.5t81.5 73t29.5 117.5q0 246 -356 246h-125v-481zM381 778h147q61 0 112 11.5 t95 36.5t69 71.5t25 110.5q0 57 -22.5 98t-62.5 63.5t-85.5 32.5t-99.5 10h-178v-434z"/>
<glyph unicode="C" horiz-adv-x="1218" d="M94 682q0 154 54.5 285.5t150 223t229.5 143.5t289 52q190 0 330 -51l-12 -180q-123 57 -293 57q-236 0 -375 -148t-139 -382q0 -241 135 -385.5t375 -144.5q175 0 301 59l12 -174q-131 -60 -334 -60q-328 0 -525.5 189.5t-197.5 515.5z"/>
<glyph unicode="D" horiz-adv-x="1376" d="M164 0v1366h420q333 0 515.5 -175.5t182.5 -508.5q0 -175 -55 -306.5t-156.5 -213t-239 -122t-309.5 -40.5h-358zM387 166h113q270 0 409.5 125t139.5 391q0 238 -126.5 378t-361.5 140h-174v-1034z"/>
<glyph unicode="E" horiz-adv-x="1058" d="M164 0v1366h784v-166h-565v-420h539v-164h-539v-450h586v-166h-805z"/>
<glyph unicode="F" horiz-adv-x="1001" d="M164 0v1366h766v-166h-543v-430h520v-162h-520v-608h-223z"/>
<glyph unicode="G" horiz-adv-x="1394" d="M94 682q0 207 94 368.5t258.5 248.5t372.5 87q229 0 393 -63l-12 -182q-141 76 -350 76q-240 0 -381 -147.5t-141 -387.5q0 -115 31.5 -212t92 -168.5t154.5 -111.5t213 -40q147 0 250 40v379h-246v158h451v-666q-217 -84 -457 -84q-328 0 -525.5 189.5t-197.5 515.5z "/>
<glyph unicode="H" horiz-adv-x="1384" d="M164 0v1366h223v-571h612v571h224v-1366h-224v610h-612v-610h-223z"/>
<glyph unicode="I" horiz-adv-x="548" d="M164 0v1366h223v-1366h-223z"/>
<glyph unicode="J" horiz-adv-x="704" d="M10 8l10 170q46 -20 117 -20q102 0 149.5 66t47.5 169v973h223v-995q0 -181 -91.5 -287.5t-268.5 -106.5q-96 0 -187 31z"/>
<glyph unicode="K" horiz-adv-x="1267" d="M164 0v1366h223v-604l551 604h270l-616 -639l670 -727h-287l-588 668v-668h-223z"/>
<glyph unicode="L" horiz-adv-x="991" d="M164 0v1366h223v-1182h567v-184h-790z"/>
<glyph unicode="M" horiz-adv-x="1839" d="M164 0v1366h336l422 -1122l417 1122h338v-1366h-211v1206l-448 -1206h-203l-450 1206v-1206h-201z"/>
<glyph unicode="N" horiz-adv-x="1439" d="M164 0v1366h319l592 -1163v1163h203v-1366h-322l-591 1163v-1163h-201z"/>
<glyph unicode="O" horiz-adv-x="1466" d="M94 682q0 149 41.5 276t120.5 223t201.5 150.5t275.5 54.5q157 0 280 -53t200.5 -148t118 -222.5t40.5 -280.5q0 -150 -41.5 -278t-120 -223.5t-201 -149.5t-276.5 -54q-157 0 -280 53t-201 147.5t-118 222.5t-40 282zM328 682q0 -78 14 -152t45.5 -144.5t77 -123.5 t115 -85t153.5 -32q87 0 157 31.5t115.5 83.5t76.5 122.5t44 145t13 154.5t-13 154.5t-44 145t-76.5 122.5t-115.5 83.5t-157 31.5q-85 0 -154.5 -32t-115 -85t-77 -123.5t-45 -144.5t-13.5 -152z"/>
<glyph unicode="P" horiz-adv-x="1124" d="M164 0v1366h459q198 0 323 -106t125 -299q0 -103 -36.5 -184t-100 -131t-145 -75.5t-175.5 -25.5h-231v-545h-219zM383 709h104q63 0 108 4t95 19t81.5 41t52 73t20.5 112q0 121 -76.5 183.5t-200.5 62.5h-184v-495z"/>
<glyph unicode="Q" horiz-adv-x="1466" d="M94 682q0 149 41.5 276t120.5 223t201.5 150.5t275.5 54.5q157 0 280 -53t200.5 -148t118 -222.5t40.5 -280.5q0 -221 -86.5 -392.5t-251.5 -248.5l289 -303h-270l-232 246q-47 -7 -88 -7q-157 0 -280 53t-201 147.5t-118 222.5t-40 282zM328 682q0 -78 14 -152 t45.5 -144.5t77 -123.5t115 -85t153.5 -32q87 0 157 31.5t115.5 83.5t76.5 122.5t44 145t13 154.5t-13 154.5t-44 145t-76.5 122.5t-115.5 83.5t-157 31.5q-85 0 -154.5 -32t-115 -85t-77 -123.5t-45 -144.5t-13.5 -152z"/>
<glyph unicode="R" horiz-adv-x="1193" d="M164 0v1366h454q90 0 166.5 -19.5t140 -60.5t100 -112t36.5 -166q0 -130 -89.5 -216.5t-223.5 -107.5q78 -14 122 -59t78 -127l203 -498h-244l-168 424q-30 75 -54.5 109t-68.5 51.5t-122 17.5h-111v-602h-219zM383 766h139q60 0 112.5 11t99 35.5t73.5 70.5t27 108 q0 51 -16.5 89.5t-43 61.5t-67 37.5t-82.5 19.5t-95 5h-147v-438z"/>
<glyph unicode="S" horiz-adv-x="1050" d="M90 1014q0 78 29.5 141.5t78.5 105.5t114.5 71t134.5 41.5t141 12.5q169 0 305 -43l-12 -180q-115 56 -285 56q-52 0 -99 -9.5t-90 -30.5t-68.5 -61t-25.5 -94q0 -36 17 -67t50.5 -57t63.5 -42.5t76 -38.5l146 -69q69 -33 116.5 -63.5t92.5 -74.5t67.5 -102.5 t22.5 -130.5q0 -99 -41 -177.5t-111.5 -126.5t-158.5 -73t-187 -25q-206 0 -369 60l11 190q147 -82 346 -82q79 0 140.5 22t101.5 75t40 131q0 28 -8.5 52.5t-30 47t-38.5 38t-53 36t-53.5 29.5t-59.5 30l-140 70q-125 62 -194.5 140t-69.5 198z"/>
<glyph unicode="T" horiz-adv-x="1095" d="M20 1182v184h1057v-184h-418v-1182h-223v1182h-416z"/>
<glyph unicode="U" horiz-adv-x="1372" d="M147 492v874h224v-870q0 -156 80.5 -250t234.5 -94t236 94t82 250v870h223v-868q0 -243 -149.5 -382t-393.5 -139q-246 0 -391.5 135t-145.5 380z"/>
<glyph unicode="V" horiz-adv-x="1280" d="M6 1366h238l401 -1151l406 1151h225l-512 -1366h-252z"/>
<glyph unicode="W" horiz-adv-x="1947" d="M18 1366h222l301 -1153l321 1153h242l317 -1153l303 1153h205l-379 -1366h-254l-319 1155l-322 -1155h-256z"/>
<glyph unicode="X" horiz-adv-x="1302" d="M12 0l502 715l-453 651h256l349 -526l344 526h239l-454 -651l497 -715h-264l-379 592l-393 -592h-244z"/>
<glyph unicode="Y" horiz-adv-x="1226" d="M-4 1366h246l379 -651l374 651h238l-510 -821v-545h-223v545z"/>
<glyph unicode="Z" horiz-adv-x="1071" d="M53 0v180l707 1014h-682v172h923v-180l-696 -1014h715v-172h-967z"/>
<glyph unicode="[" horiz-adv-x="587" d="M174 -262v1739h389v-136h-209v-1466h209v-137h-389z"/>
<glyph unicode="\" horiz-adv-x="616" d="M-47 1366h176l537 -1366h-177z"/>
<glyph unicode="]" horiz-adv-x="587" d="M27 -125h209v1466h-209v136h389v-1739h-389v137z"/>
<glyph unicode="^" d="M145 502l353 864h157l353 -864h-179l-256 667l-249 -667h-179z"/>
<glyph unicode="_" horiz-adv-x="1024" d="M0 -154h1024v-102h-1024v102z"/>
<glyph unicode="`" horiz-adv-x="485" d="M-23 1475h222l147 -279h-156z"/>
<glyph unicode="a" horiz-adv-x="1058" d="M66 270q0 97 43.5 168t122 112t175 60t214.5 19q69 0 100 -2v43q0 231 -234 231q-169 0 -301 -82l-12 158q71 29 163.5 48t168.5 19q416 0 416 -389v-428q0 -122 12 -227h-201l-6 162q-45 -85 -134 -135t-187 -50q-147 0 -243.5 75t-96.5 218zM268 283q0 -79 55 -120.5 t136 -41.5q71 0 123.5 26t82 72.5t43 102.5t13.5 124v56h-33q-42 0 -76 -1.5t-79.5 -6.5t-80 -13.5t-71 -25t-60 -39t-38.5 -57t-15 -76.5z"/>
<glyph unicode="b" horiz-adv-x="1157" d="M141 0v1477h205v-623q37 87 125 138.5t188 51.5q91 0 163 -29t119.5 -78t79 -117.5t45 -143.5t13.5 -160q0 -105 -23.5 -198t-72 -171t-133 -124t-195.5 -46q-222 0 -321 193l-4 -170h-189zM340 516q0 -66 13.5 -129t41.5 -121.5t81 -94.5t124 -36q60 0 106.5 23.5 t74.5 61t46 89.5t24.5 102t6.5 105q0 71 -11 131t-37.5 117t-79.5 90t-128 33q-57 0 -102.5 -23t-75 -60t-49 -86.5t-27.5 -99.5t-8 -102z"/>
<glyph unicode="c" horiz-adv-x="935" d="M80 516q0 237 143.5 382.5t380.5 145.5q140 0 268 -43l-12 -163q-113 53 -213 53q-164 0 -255 -104t-91 -271q0 -105 38 -190.5t116 -139t184 -53.5q117 0 223 47l10 -162q-119 -41 -278 -41t-276.5 69.5t-177.5 191t-60 278.5z"/>
<glyph unicode="d" horiz-adv-x="1157" d="M80 516q0 84 14 159.5t46.5 143.5t80.5 117.5t120.5 78.5t162.5 29q99 0 185.5 -51t123.5 -139v623h205v-1170q0 -147 10 -307h-190l-13 170q-46 -95 -129.5 -144t-191.5 -49q-111 0 -195.5 45.5t-133 123.5t-72 171t-23.5 199zM301 514q0 -70 11.5 -131.5t38.5 -120 t80.5 -93t127.5 -34.5q71 0 124 35.5t81 94t41.5 121t13.5 128.5q0 52 -8 102t-27.5 100t-48.5 87t-75 60.5t-103 23.5q-75 0 -128 -33t-79.5 -90.5t-37.5 -117.5t-11 -132z"/>
<glyph unicode="e" horiz-adv-x="1044" d="M80 516q0 142 55.5 261.5t162.5 193t245 73.5q89 0 161 -27t121.5 -74t82.5 -113.5t48 -143.5t15 -166v-61h-680q0 -145 86 -241.5t231 -96.5q71 0 154 19.5t143 52.5l13 -160q-146 -56 -343 -56q-244 0 -369.5 145.5t-125.5 393.5zM289 586h485q0 58 -12 111t-37 101 t-71.5 76.5t-108.5 28.5q-82 0 -142.5 -53t-87 -123.5t-26.5 -140.5z"/>
<glyph unicode="f" horiz-adv-x="690" d="M39 877v147h194v119q0 56 6.5 102t26.5 94.5t52 82t87.5 54.5t129.5 21q104 0 161 -22l-12 -148q-49 19 -100 19q-144 0 -144 -199v-123h226v-147h-224v-877h-209v877h-194z"/>
<glyph unicode="g" horiz-adv-x="1157" d="M80 516q0 84 14.5 159.5t46.5 143.5t80 117.5t119.5 78.5t159.5 29q224 0 321 -190v170h197v-967q0 -252 -128.5 -387t-379.5 -135q-170 0 -348 55l12 174q140 -73 305 -73q171 0 252.5 97.5t81.5 268.5v121q-49 -83 -134.5 -130.5t-182.5 -47.5q-87 0 -158 29.5 t-118 78.5t-79.5 116t-46.5 140t-14 152zM301 514q0 -52 6.5 -99t24 -95t45.5 -83t74 -57t106 -22q57 0 103 22.5t75 58t48.5 83t27.5 95.5t8 97q0 66 -13 128t-41.5 119t-81.5 91.5t-124 34.5q-75 0 -128.5 -33t-80 -90t-38 -118t-11.5 -132z"/>
<glyph unicode="h" horiz-adv-x="1144" d="M141 0v1477h205v-623q94 190 318 190q176 0 259 -106t83 -291v-647h-207v604q0 48 -4 85.5t-17 75.5t-34.5 63t-59 41t-88.5 16q-68 0 -118 -28t-78 -75.5t-41 -103t-13 -119.5v-559h-205z"/>
<glyph unicode="i" horiz-adv-x="485" d="M141 0v1024h205v-1024h-205zM141 1235v199h205v-199h-205z"/>
<glyph unicode="j" horiz-adv-x="497" d="M-61 -449l12 158q35 -12 74 -12q41 0 68 14t39 42t16 55.5t4 68.5v1147h206v-1171q0 -318 -262 -318q-89 0 -157 16zM152 1235v199h206v-199h-206z"/>
<glyph unicode="k" horiz-adv-x="1058" d="M141 0v1477h205v-875l408 422h250l-449 -455l496 -569h-258l-447 528v-528h-205z"/>
<glyph unicode="l" horiz-adv-x="485" d="M141 0v1477h205v-1477h-205z"/>
<glyph unicode="m" horiz-adv-x="1718" d="M131 1024h193l6 -176q102 196 313 196q116 0 195 -59t104 -149q36 94 124.5 151t188.5 57q161 0 242.5 -98t81.5 -264v-682h-207v657q0 228 -182 228q-60 0 -105.5 -28t-71 -76t-38 -104t-12.5 -118v-559h-205v657q0 228 -183 228q-80 0 -133.5 -50t-74.5 -120.5 t-21 -155.5v-559h-205v788q0 138 -10 236z"/>
<glyph unicode="n" horiz-adv-x="1144" d="M131 1024h193l6 -176q106 196 332 196q344 0 344 -397v-647h-207v604q0 48 -4 85t-17 75.5t-34.5 63.5t-59 41t-88.5 16q-68 0 -118.5 -28t-78 -76t-40.5 -103.5t-13 -120.5v-557h-205v788q0 138 -10 236z"/>
<glyph unicode="o" horiz-adv-x="1167" d="M80 516q0 235 138 381.5t366 146.5q239 0 371 -142.5t132 -385.5q0 -240 -133 -389.5t-370 -149.5q-239 0 -371.5 149t-132.5 390zM301 516q0 -72 16 -138t48 -122t88.5 -89.5t130.5 -33.5t130 33t88.5 88.5t48 121.5t15.5 140q0 72 -15 136t-46.5 119t-88 87.5 t-132.5 32.5q-59 0 -107.5 -22t-80.5 -58t-54 -85t-31.5 -101.5t-9.5 -108.5z"/>
<glyph unicode="p" horiz-adv-x="1157" d="M131 1024h195l8 -176q40 89 131.5 142.5t193.5 53.5q91 0 163 -29t119.5 -78t79 -117.5t45 -143.5t13.5 -160q0 -105 -23.5 -198t-72 -171t-133 -124t-195.5 -46q-101 0 -186.5 50.5t-122.5 138.5v-608h-205v1142q0 157 -10 324zM340 516q0 -66 13.5 -129t41.5 -121.5 t81 -94.5t124 -36q60 0 106.5 23.5t74.5 61t46 89.5t24.5 102t6.5 105q0 71 -11 131t-37.5 117t-79.5 90t-128 33q-57 0 -102.5 -23t-75 -60t-49 -86.5t-27.5 -99.5t-8 -102z"/>
<glyph unicode="q" horiz-adv-x="1157" d="M80 516q0 84 14.5 159.5t46.5 143.5t80 117.5t119.5 78.5t159.5 29q228 0 325 -190l2 170h191v-1466h-205v612q-38 -88 -124 -140.5t-185 -52.5q-111 0 -195.5 45.5t-133 123.5t-72 171t-23.5 199zM301 516q0 -70 11.5 -131.5t38.5 -120.5t80.5 -94t127.5 -35 q71 0 124 36t81 94.5t41.5 121.5t13.5 129q0 52 -8 102t-27.5 99.5t-48.5 86.5t-75 60t-103 23q-75 0 -128 -32.5t-79.5 -89.5t-37.5 -117t-11 -132z"/>
<glyph unicode="r" horiz-adv-x="720" d="M131 1024h193l6 -197q35 89 110 153t168 64q57 0 86 -8l-10 -194q-32 12 -84 12q-72 0 -124 -34t-79 -90.5t-39 -116.5t-12 -126v-487h-205v788q0 138 -10 236z"/>
<glyph unicode="s" horiz-adv-x="845" d="M72 27l12 163q128 -67 281 -67q81 0 145.5 39t64.5 114q0 47 -27.5 82t-72 58t-98.5 43.5t-107.5 44.5t-98 54.5t-72 80.5t-27.5 115q0 76 35 134t92.5 91t123.5 49t136 16q143 0 276 -45l-12 -149q-117 49 -248 49q-38 0 -70 -6t-63.5 -20t-49.5 -43t-18 -70 q0 -36 28 -63.5t72 -47.5t98 -39.5t108 -46t98 -60.5t72 -89t28 -125q0 -77 -34.5 -138.5t-91.5 -98.5t-125 -56t-142 -19q-170 0 -313 50z"/>
<glyph unicode="t" horiz-adv-x="716" d="M31 877v147h188v221l207 68v-289h229v-147h-229v-574q0 -76 27.5 -120t99.5 -44q55 0 113 25l10 -152q-93 -35 -197 -35q-64 0 -111 18t-75.5 47.5t-45 76.5t-22.5 95.5t-6 113.5v549h-188z"/>
<glyph unicode="u" horiz-adv-x="1136" d="M137 379v645h205v-602q0 -48 4 -85t17 -76t34.5 -64.5t59 -41.5t88.5 -16q68 0 118.5 28t77.5 76t39.5 103.5t12.5 120.5v557h204v-788q0 -129 11 -236h-193l-6 174q-107 -197 -330 -197q-342 0 -342 402z"/>
<glyph unicode="v" horiz-adv-x="962" d="M18 1024h220l249 -856l250 856h209l-338 -1024h-254z"/>
<glyph unicode="w" horiz-adv-x="1648" d="M23 1024h215l235 -850l240 850h245l240 -850l234 850h194l-305 -1024h-254l-238 852l-241 -852h-254z"/>
<glyph unicode="x" horiz-adv-x="995" d="M23 0l350 537l-316 487h232l221 -381l215 381h219l-311 -487l344 -537h-234l-243 426l-256 -426h-221z"/>
<glyph unicode="y" horiz-adv-x="960" d="M18 1024h222l252 -842l245 842h209l-395 -1176q-17 -51 -35 -91.5t-46.5 -84t-62 -72t-81.5 -47t-105 -18.5t-160 21l13 157q66 -20 102 -20q37 0 69 22t54.5 58.5t36 66.5t24.5 64l21 63z"/>
<glyph unicode="z" horiz-adv-x="923" d="M61 0v166l570 711h-547v147h776v-166l-567 -708h571v-150h-803z"/>
<glyph unicode="{" horiz-adv-x="591" d="M59 547v125q55 0 91 39.5t48.5 88.5t12.5 103v326q0 101 58 174.5t157 73.5h147v-121h-84q-37 0 -61 -28.5t-31.5 -63.5t-7.5 -74v-322q0 -88 -48 -163t-132 -97q84 -22 132 -97t48 -165v-317q0 -39 7.5 -74.5t31.5 -65.5t61 -30h84v-121h-149q-99 0 -156 74.5t-57 175.5 v329q0 54 -12.5 103t-48.5 88t-91 39z"/>
<glyph unicode="|" horiz-adv-x="440" d="M131 -442v2029h180v-2029h-180z"/>
<glyph unicode="}" horiz-adv-x="591" d="M18 -141h86q28 0 49 16.5t31 43.5t14.5 54t4.5 56v317q0 90 48 165t132 97q-83 22 -131.5 96.5t-48.5 163.5v322q0 28 -4.5 54.5t-14.5 53t-31 42.5t-49 16h-86v121h150q99 0 157 -73.5t58 -174.5v-326q0 -54 12.5 -103t48.5 -88.5t91 -39.5v-125q-55 0 -91 -39 t-48.5 -88t-12.5 -103v-329q0 -101 -58 -175.5t-157 -74.5h-150v121z"/>
<glyph unicode="~" d="M29 350q5 47 17 90.5t33.5 85.5t51 72.5t72 49t92.5 18.5q76 0 183.5 -36.5t211 -73t170.5 -36.5q64 0 101.5 43.5t50.5 110.5h110q-4 -58 -21 -111.5t-47.5 -100t-80 -74.5t-111.5 -28q-78 0 -185 36t-210 72t-172 36q-63 0 -103.5 -44.5t-48.5 -109.5h-114z"/>
<glyph unicode="¡" horiz-adv-x="569" d="M166 -342l35 999h170l35 -999h-240zM176 815v209h219v-209h-219z"/>
<glyph unicode="¢" d="M182 688q0 195 108.5 329t291.5 163v186h120v-182q97 0 224 -43l-13 -156q-104 51 -196 51q-153 0 -238.5 -97t-85.5 -251q0 -149 84 -251.5t230 -102.5q102 0 208 47l13 -156q-115 -41 -226 -41v-184h-120v190q-189 26 -294.5 162t-105.5 336z"/>
<glyph unicode="£" d="M164 0v158h162v491h-154v154h154v112q0 223 113 347t345 124q158 0 256 -40l-18 -164q-79 43 -209 43q-84 0 -141 -25.5t-85 -73.5t-39 -101t-11 -124v-98h340v-154h-340v-491h485v-158h-858z"/>
<glyph unicode="¤" d="M88 297l131 131q-82 124 -82 254q0 136 82 254l-131 133l102 102l132 -133q118 82 253 82q132 0 256 -80l132 129l102 -102l-131 -131q82 -125 82 -256q0 -137 -82 -250l131 -135l-102 -102l-134 133q-113 -84 -251 -84q-129 0 -254 84l-131 -133zM293 682 q0 -118 82 -201.5t200 -83.5q119 0 202 83.5t83 201.5q0 117 -83.5 201t-201.5 84t-200 -83t-82 -202z"/>
<glyph unicode="¥" d="M47 1366h223l308 -633l309 633h219l-361 -668h242v-139h-311v-137h311v-139h-311v-283h-215v283h-299v139h299v137h-299v139h231z"/>
<glyph unicode="¦" horiz-adv-x="440" d="M131 371h180v-813h-180v813zM131 776v811h180v-811h-180z"/>
<glyph unicode="§" d="M170 594q0 136 178 266q-139 74 -139 227q0 76 34 135t91.5 94t125.5 52.5t142 17.5q164 0 311 -43l-12 -155q-128 49 -260 49q-52 0 -101 -12t-88.5 -47t-39.5 -88q0 -15 3 -29t6.5 -25t13 -22t14.5 -18.5t20 -17t21 -14t25 -13.5t25 -12t28.5 -12.5t27.5 -11.5l180 -77 q52 -22 86 -42.5t65.5 -50.5t46.5 -71.5t15 -95.5q0 -84 -38 -142.5t-115 -126.5q66 -45 97.5 -102t31.5 -137q0 -79 -38 -143t-101 -102.5t-137 -58.5t-152 -20q-183 0 -357 55l13 158q149 -63 321 -63q57 0 111 16.5t95.5 57.5t41.5 100q0 28 -14 52.5t-41.5 44 t-51.5 32.5t-59 28l-219 92q-94 40 -150.5 108.5t-56.5 166.5zM352 608q0 -52 39.5 -87.5t106.5 -65.5l207 -90q102 102 102 192q0 33 -14 59.5t-41.5 46.5t-52 32.5t-62.5 27.5l-166 68q-52 -29 -85.5 -78t-33.5 -105z"/>
<glyph unicode="¨" horiz-adv-x="485" d="M-16 1235v199h170v-199h-170zM334 1235v199h170v-199h-170z"/>
<glyph unicode="©" horiz-adv-x="1597" d="M94 684q0 143 56 273t150.5 224t225 149.5t273.5 55.5t273.5 -55.5t225 -149.5t150 -224t55.5 -273t-55.5 -274t-150 -226t-225 -151t-273.5 -56q-191 0 -353.5 95t-257 258t-94.5 354zM229 684q0 -156 75.5 -291t207.5 -215t287 -80q156 0 287 80t205.5 214.5 t74.5 291.5q0 156 -75 290t-206 213t-286 79t-287 -79t-207.5 -213t-75.5 -290zM426 684q0 178 123.5 286.5t316.5 108.5q103 0 197 -32l-8 -119q-94 37 -172 37q-143 0 -225.5 -77t-82.5 -204q0 -128 81 -203t227 -75q85 0 172 38l8 -118q-87 -37 -197 -37 q-201 0 -320.5 105.5t-119.5 289.5z"/>
<glyph unicode="ª" horiz-adv-x="778" d="M70 922q0 79 53 131t131.5 72t179.5 20q10 0 36 -1t38 -1v18q0 117 -158 117q-111 0 -196 -49l-7 119q104 38 220 38q134 0 211 -56.5t77 -178.5v-250q0 -93 7 -141h-150l-4 104q-31 -54 -89.5 -86.5t-121.5 -32.5q-102 0 -164.5 44.5t-62.5 132.5zM221 928 q0 -80 121 -80q65 0 111.5 48.5t52.5 121.5l2 26h-25q-49 0 -93 -6t-83.5 -19t-62.5 -36t-23 -55z"/>
<glyph unicode="«" horiz-adv-x="952" d="M55 524l271 408h174l-258 -408l258 -411h-174zM432 524l270 408h177l-258 -408l258 -411h-177z"/>
<glyph unicode="¬" d="M53 635v160h1047v-568h-166v408h-881z"/>
<glyph unicode="­" horiz-adv-x="667" d="M82 551v168h504v-168h-504z"/>
<glyph unicode="®" horiz-adv-x="1597" d="M94 684q0 143 56 273t150.5 224t225 149.5t273.5 55.5t273.5 -55.5t225 -149.5t150 -224t55.5 -273t-55.5 -274t-150 -226t-225 -151t-273.5 -56q-191 0 -353.5 95t-257 258t-94.5 354zM231 684q0 -156 75 -290.5t206.5 -215t286.5 -80.5t286.5 80.5t207 215t75.5 290.5 q0 155 -75.5 289t-207 213.5t-286.5 79.5t-286.5 -79t-206.5 -213t-75 -290zM520 313v770h289q117 0 194.5 -49.5t77.5 -154.5q0 -74 -55.5 -125t-136.5 -64q49 -9 78 -34.5t49 -71.5l114 -271h-151l-96 230q-24 58 -54 79t-98 21h-67v-330h-144zM662 748h86q186 0 186 122 q0 33 -15.5 55.5t-44.5 33t-59 14.5t-70 4h-83v-229z"/>
<glyph unicode="¯" horiz-adv-x="485" d="M-33 1276v121h553v-121h-553z"/>
<glyph unicode="°" horiz-adv-x="819" d="M100 1083q0 129 90.5 216t219.5 87q128 0 219.5 -86.5t91.5 -216.5q0 -129 -91 -215t-220 -86q-128 0 -219 85.5t-91 215.5zM219 1083q0 -75 57.5 -128.5t133.5 -53.5t133 53.5t57 128.5q0 84 -53.5 135.5t-136.5 51.5t-137 -51.5t-54 -135.5z"/>
<glyph unicode="±" d="M53 -39v158h1047v-158h-1047zM53 553v160h441v348h165v-348h441v-160h-441v-344h-165v344h-441z"/>
<glyph unicode="²" horiz-adv-x="880" d="M131 553v125l176 153q15 12 48 39t55.5 45.5t52 47.5t48 53.5t31.5 55t13 58.5q0 63 -48.5 96.5t-119.5 33.5q-102 0 -221 -56l-6 131q141 51 250 51q62 0 116.5 -14.5t98 -43t69 -76t25.5 -107.5q0 -36 -14 -73t-33.5 -66t-52.5 -63.5t-58 -56t-63.5 -54t-55.5 -48.5 l-123 -110h412v-121h-600z"/>
<glyph unicode="³" horiz-adv-x="880" d="M123 573l8 125q88 -34 221 -34q53 0 99 13t80 45.5t34 78.5q0 45 -35.5 73.5t-80 38t-95.5 9.5h-114v112h96q53 0 99 11.5t81 42t35 75.5q0 30 -18.5 51.5t-49.5 32t-62 15t-65 4.5q-106 0 -202 -35l-7 121q115 34 236 34q59 0 114 -10t106.5 -32.5t82.5 -65t31 -100.5 q0 -74 -50.5 -127t-131.5 -72q84 -11 141 -61t57 -125q0 -66 -31 -116t-84.5 -78.5t-116 -42t-134.5 -13.5q-148 0 -244 30z"/>
<glyph unicode="´" horiz-adv-x="485" d="M133 1196l146 279h223l-211 -279h-158z"/>
<glyph unicode="µ" d="M139 -442v1466h207v-606q0 -48 4 -85.5t17 -75.5t34.5 -63t59 -41t88.5 -16q68 0 118 27.5t77 75.5t39 103t12 120v561h204v-788q0 -134 11 -236h-193l-6 178q-48 -91 -124 -142.5t-169 -51.5q-112 0 -174 65v-491h-205z"/>
<glyph unicode="¶" d="M76 1014q0 101 35.5 174.5t99.5 114.5t142.5 60t176.5 19h523v-1603h-160v1474h-244v-1474h-160v880q-109 0 -201.5 40t-152 122.5t-59.5 192.5z"/>
<glyph unicode="·" horiz-adv-x="575" d="M178 530v209h219v-209h-219z"/>
<glyph unicode="¸" horiz-adv-x="485" d="M31 -338l32 72q93 -35 150 -35q38 0 72 19.5t34 48.5q0 31 -23 48t-52 17q-44 0 -88 -16l-29 41l96 143h94l-77 -106q24 8 75 8q57 0 99.5 -35t42.5 -94q0 -74 -65.5 -113t-155.5 -39q-113 0 -205 41z"/>
<glyph unicode="¹" horiz-adv-x="880" d="M180 1196l248 170h139v-821h-159v667l-164 -120z"/>
<glyph unicode="º" horiz-adv-x="778" d="M53 1069q0 145 90.5 231t245.5 86q159 0 247.5 -84.5t88.5 -232.5q0 -147 -89.5 -235.5t-246.5 -88.5q-159 0 -247.5 88.5t-88.5 235.5zM219 1069q0 -87 41 -147t129 -60q87 0 128.5 59.5t41.5 147.5q0 53 -14.5 96t-54.5 75t-101 32q-86 0 -128 -61t-42 -142z"/>
<glyph unicode="»" horiz-adv-x="952" d="M76 113l258 409l-258 410h174l270 -410l-270 -409h-174zM453 113l258 409l-258 410h176l270 -410l-270 -409h-176z"/>
<glyph unicode="¼" horiz-adv-x="1945" d="M180 1196l248 170h139v-821h-159v667l-164 -120zM403 -49l867 1464h143l-866 -1464h-144zM1030 180v135l400 506h172v-522h131v-119h-131v-180h-158v180h-414zM1137 297h311v401z"/>
<glyph unicode="½" horiz-adv-x="1945" d="M119 1196l248 170h139v-821h-160v667l-164 -120zM342 -49l866 1464h144l-867 -1464h-143zM1124 0v125l174 154q16 14 57.5 47.5t68.5 57.5t58.5 57.5t47.5 68t16 68.5q0 63 -48.5 96t-119.5 33q-100 0 -219 -56l-6 131q143 52 248 52q83 0 152 -25t114 -81.5t45 -135.5 q0 -43 -17 -84t-53 -82.5t-63 -68t-78 -69.5t-67 -57l-121 -110h411v-121h-600z"/>
<glyph unicode="¾" horiz-adv-x="1945" d="M131 573l8 125q88 -34 221 -34q53 0 99 13t80 45.5t34 78.5q0 45 -35.5 73.5t-80 38t-95.5 9.5h-114v112h96q53 0 99 11.5t81 42t35 75.5q0 30 -18.5 51.5t-49 32t-61.5 15t-65 4.5q-107 0 -203 -35l-6 121q115 34 235 34q59 0 114 -10t106.5 -32.5t82.5 -65t31 -100.5 q0 -74 -50.5 -127t-131.5 -72q84 -11 141 -61t57 -125q0 -66 -31 -116t-84.5 -78.5t-116 -42t-134.5 -13.5q-148 0 -244 30zM524 -49l869 1464h143l-868 -1464h-144zM1151 180v135l399 506h172v-522h131v-119h-131v-180h-155v180h-416zM1260 297h309v401z"/>
<glyph unicode="¿" horiz-adv-x="872" d="M74 -18q0 63 19 118t49.5 95.5t67 78.5t73 75t67 76t49.5 91.5t19 112.5v28h186v-26q0 -71 -17 -131t-44.5 -101.5t-60 -78t-65.5 -70t-60.5 -68t-44.5 -80.5t-17 -100q0 -92 66 -142t163 -50q127 0 277 53l12 -170q-94 -28 -164 -41.5t-157 -13.5q-83 0 -157 21t-133 62 t-93.5 108t-34.5 153zM401 815v209h220v-209h-220z"/>
<glyph unicode="À" horiz-adv-x="1355" d="M4 0l533 1366h280l537 -1366h-234l-131 358h-633l-135 -358h-217zM412 522h522l-260 686zM414 1761h221l145 -278h-155z"/>
<glyph unicode="Á" horiz-adv-x="1355" d="M4 0l533 1366h280l537 -1366h-234l-131 358h-633l-135 -358h-217zM412 522h522l-260 686zM584 1483l145 278h221l-211 -278h-155z"/>
<glyph unicode="Â" horiz-adv-x="1355" d="M4 0l533 1366h280l537 -1366h-234l-131 358h-633l-135 -358h-217zM369 1483l211 278h188l211 -278h-158l-147 188l-148 -188h-157zM412 522h522l-260 686z"/>
<glyph unicode="Ã" horiz-adv-x="1355" d="M4 0l533 1366h280l537 -1366h-234l-131 358h-633l-135 -358h-217zM354 1503q2 55 23 103.5t66 83t104 34.5q55 0 141 -41t117 -41q36 0 58 27.5t24 61.5h112q-2 -81 -56 -150.5t-136 -69.5q-58 0 -136 40t-116 40q-34 0 -61 -28t-27 -60h-113zM412 522h522l-260 686z"/>
<glyph unicode="Ä" horiz-adv-x="1355" d="M4 0l533 1366h280l537 -1366h-234l-131 358h-633l-135 -358h-217zM412 522h522l-260 686zM418 1524v198h170v-198h-170zM768 1524v198h170v-198h-170z"/>
<glyph unicode="Å" horiz-adv-x="1355" d="M4 0l533 1366h280l537 -1366h-234l-131 358h-633l-135 -358h-217zM412 522h522l-260 686zM473 1624q0 82 59 139.5t142 57.5q82 0 141 -57t59 -140q0 -82 -58.5 -139.5t-141.5 -57.5q-82 0 -141.5 57t-59.5 140zM557 1624q0 -49 34.5 -82t82.5 -33q50 0 83.5 33t33.5 82 q0 48 -34 81.5t-83 33.5t-83 -33.5t-34 -81.5z"/>
<glyph unicode="Æ" horiz-adv-x="1832" d="M-14 0l843 1366h893v-166h-546v-422h518v-162h-518v-450h567v-166h-787v358h-522l-217 -358h-231zM524 522h432v707z"/>
<glyph unicode="Ç" horiz-adv-x="1218" d="M94 682q0 154 54.5 285.5t150 223t229.5 143.5t289 52q190 0 330 -51l-12 -180q-123 57 -293 57q-236 0 -375 -148t-139 -382q0 -239 135 -383.5t375 -144.5q175 0 301 59l12 -176q-132 -60 -320 -60l-61 -83q24 8 78 8q57 0 99 -35t42 -94q0 -74 -65.5 -113t-155.5 -39 q-113 0 -205 41l31 72q93 -35 149 -35q38 0 72.5 19.5t34.5 48.5q0 31 -22.5 48t-51.5 17q-46 0 -90 -16l-29 41l84 125q-298 22 -472.5 208t-174.5 492z"/>
<glyph unicode="È" horiz-adv-x="1058" d="M164 0v1366h784v-166h-565v-422h537v-162h-537v-450h586v-166h-805zM305 1761h223l146 -278h-156z"/>
<glyph unicode="É" horiz-adv-x="1058" d="M164 0v1366h784v-166h-565v-422h537v-162h-537v-450h586v-166h-805zM438 1483l146 278h223l-213 -278h-156z"/>
<glyph unicode="Ê" horiz-adv-x="1058" d="M164 0v1366h784v-166h-565v-422h537v-162h-537v-450h586v-166h-805zM246 1483l211 278h190l211 -278h-160l-145 188l-147 -188h-160z"/>
<glyph unicode="Ë" horiz-adv-x="1058" d="M164 0v1366h784v-166h-565v-422h537v-162h-537v-450h586v-166h-805zM297 1524v198h172v-198h-172zM647 1524v198h172v-198h-172z"/>
<glyph unicode="Ì" horiz-adv-x="548" d="M12 1761h221l146 -278h-156zM164 0v1366h223v-1366h-223z"/>
<glyph unicode="Í" horiz-adv-x="548" d="M164 0v1366h223v-1366h-223zM170 1483l145 278h224l-211 -278h-158z"/>
<glyph unicode="Î" horiz-adv-x="548" d="M-31 1483l211 278h189l211 -278h-158l-148 188l-147 -188h-158zM164 0v1366h223v-1366h-223z"/>
<glyph unicode="Ï" horiz-adv-x="548" d="M14 1524v198h170v-198h-170zM164 0v1366h223v-1366h-223zM365 1524v198h170v-198h-170z"/>
<glyph unicode="Ð" horiz-adv-x="1376" d="M10 614v144h154v608h420q333 0 515.5 -175.5t182.5 -508.5q0 -175 -55 -306.5t-156.5 -213t-239 -122t-309.5 -40.5h-358v614h-154zM387 166h113q270 0 409.5 125t139.5 391q0 238 -126.5 378t-361.5 140h-174v-442h330v-144h-330v-448z"/>
<glyph unicode="Ñ" horiz-adv-x="1439" d="M164 0v1366h319l592 -1163v1163h203v-1366h-322l-591 1163v-1163h-201zM418 1503q3 87 54 154t138 67q55 0 140 -41t116 -41q36 0 58 27.5t24 61.5h113q-2 -81 -55.5 -150.5t-135.5 -69.5q-58 0 -137 40t-117 40q-34 0 -61 -28t-27 -60h-110z"/>
<glyph unicode="Ò" horiz-adv-x="1466" d="M94 682q0 149 41.5 276t120.5 223t201.5 150.5t275.5 54.5q157 0 280 -53t200.5 -148t118 -222.5t40.5 -280.5q0 -150 -41.5 -278t-120 -223.5t-201 -149.5t-276.5 -54q-157 0 -280 53t-201 147.5t-118 222.5t-40 282zM328 682q0 -78 14 -152t45.5 -144.5t77 -123.5 t115 -85t153.5 -32q87 0 157 31.5t115.5 83.5t76.5 122.5t44 145t13 154.5t-13 154.5t-44 145t-76.5 122.5t-115.5 83.5t-157 31.5q-85 0 -154.5 -32t-115 -85t-77 -123.5t-45 -144.5t-13.5 -152zM461 1761h221l147 -278h-155z"/>
<glyph unicode="Ó" horiz-adv-x="1466" d="M94 682q0 149 41.5 276t120.5 223t201.5 150.5t275.5 54.5q157 0 280 -53t200.5 -148t118 -222.5t40.5 -280.5q0 -150 -41.5 -278t-120 -223.5t-201 -149.5t-276.5 -54q-157 0 -280 53t-201 147.5t-118 222.5t-40 282zM328 682q0 -78 14 -152t45.5 -144.5t77 -123.5 t115 -85t153.5 -32q87 0 157 31.5t115.5 83.5t76.5 122.5t44 145t13 154.5t-13 154.5t-44 145t-76.5 122.5t-115.5 83.5t-157 31.5q-85 0 -154.5 -32t-115 -85t-77 -123.5t-45 -144.5t-13.5 -152zM637 1483l147 278h222l-213 -278h-156z"/>
<glyph unicode="Ô" horiz-adv-x="1466" d="M94 682q0 149 41.5 276t120.5 223t201.5 150.5t275.5 54.5q157 0 280 -53t200.5 -148t118 -222.5t40.5 -280.5q0 -150 -41.5 -278t-120 -223.5t-201 -149.5t-276.5 -54q-157 0 -280 53t-201 147.5t-118 222.5t-40 282zM328 682q0 -78 14 -152t45.5 -144.5t77 -123.5 t115 -85t153.5 -32q87 0 157 31.5t115.5 83.5t76.5 122.5t44 145t13 154.5t-13 154.5t-44 145t-76.5 122.5t-115.5 83.5t-157 31.5q-85 0 -154.5 -32t-115 -85t-77 -123.5t-45 -144.5t-13.5 -152zM428 1483l211 278h188l211 -278h-157l-148 188l-145 -188h-160z"/>
<glyph unicode="Õ" horiz-adv-x="1466" d="M94 682q0 149 41.5 276t120.5 223t201.5 150.5t275.5 54.5q157 0 280 -53t200.5 -148t118 -222.5t40.5 -280.5q0 -150 -41.5 -278t-120 -223.5t-201 -149.5t-276.5 -54q-157 0 -280 53t-201 147.5t-118 222.5t-40 282zM328 682q0 -78 14 -152t45.5 -144.5t77 -123.5 t115 -85t153.5 -32q87 0 157 31.5t115.5 83.5t76.5 122.5t44 145t13 154.5t-13 154.5t-44 145t-76.5 122.5t-115.5 83.5t-157 31.5q-85 0 -154.5 -32t-115 -85t-77 -123.5t-45 -144.5t-13.5 -152zM414 1503q3 87 54 154t138 67q55 0 140 -41t116 -41q36 0 58 27.5t24 61.5 h111q-2 -81 -55.5 -150.5t-135.5 -69.5q-58 0 -137 40t-117 40q-34 0 -60 -28t-26 -60h-110z"/>
<glyph unicode="Ö" horiz-adv-x="1466" d="M94 682q0 149 41.5 276t120.5 223t201.5 150.5t275.5 54.5q157 0 280 -53t200.5 -148t118 -222.5t40.5 -280.5q0 -150 -41.5 -278t-120 -223.5t-201 -149.5t-276.5 -54q-157 0 -280 53t-201 147.5t-118 222.5t-40 282zM328 682q0 -78 14 -152t45.5 -144.5t77 -123.5 t115 -85t153.5 -32q87 0 157 31.5t115.5 83.5t76.5 122.5t44 145t13 154.5t-13 154.5t-44 145t-76.5 122.5t-115.5 83.5t-157 31.5q-85 0 -154.5 -32t-115 -85t-77 -123.5t-45 -144.5t-13.5 -152zM473 1524v198h170v-198h-170zM823 1524v198h170v-198h-170z"/>
<glyph unicode="×" d="M80 129l383 383l-383 381l115 117l380 -385l383 383l115 -115l-381 -381l381 -383l-115 -115l-380 383l-383 -381z"/>
<glyph unicode="Ø" horiz-adv-x="1466" d="M66 33l159 182q-127 182 -127 467q0 149 41.5 276t120.5 223t201.5 150.5t275.5 54.5q257 0 420 -141l152 170l92 -84l-156 -176q131 -183 131 -473q0 -150 -41.5 -278t-120 -223.5t-201 -149.5t-276.5 -54q-262 0 -424 146l-155 -174zM332 682q0 -167 67 -287l617 703 q-108 121 -279 121q-85 0 -154.5 -32t-115 -85t-77 -123.5t-45 -144.5t-13.5 -152zM457 274q104 -129 280 -129q87 0 157 31.5t115.5 83.5t76.5 122.5t44 145t13 154.5q0 170 -70 295z"/>
<glyph unicode="Ù" horiz-adv-x="1372" d="M147 492v874h224v-870q0 -156 80.5 -250t234.5 -94t236 94t82 250v870h223v-868q0 -243 -149.5 -382t-393.5 -139q-246 0 -391.5 135t-145.5 380zM440 1761h222l145 -278h-156z"/>
<glyph unicode="Ú" horiz-adv-x="1372" d="M147 492v874h224v-870q0 -156 80.5 -250t234.5 -94t236 94t82 250v870h223v-868q0 -243 -149.5 -382t-393.5 -139q-246 0 -391.5 135t-145.5 380zM565 1483l148 278h221l-213 -278h-156z"/>
<glyph unicode="Û" horiz-adv-x="1372" d="M147 492v874h224v-870q0 -156 80.5 -250t234.5 -94t236 94t82 250v870h223v-868q0 -243 -149.5 -382t-393.5 -139q-246 0 -391.5 135t-145.5 380zM379 1483l213 278h188l209 -278h-158l-145 188l-149 -188h-158z"/>
<glyph unicode="Ü" horiz-adv-x="1372" d="M147 492v874h224v-870q0 -156 80.5 -250t234.5 -94t236 94t82 250v870h223v-868q0 -243 -149.5 -382t-393.5 -139q-246 0 -391.5 135t-145.5 380zM426 1524v198h172v-198h-172zM776 1524v198h172v-198h-172z"/>
<glyph unicode="Ý" horiz-adv-x="1226" d="M-4 1366h246l379 -651l374 651h238l-510 -821v-545h-223v545zM516 1483l146 278h223l-213 -278h-156z"/>
<glyph unicode="Þ" horiz-adv-x="1124" d="M164 0v1366h219v-262h240q198 0 323 -106.5t125 -299.5q0 -103 -36.5 -183.5t-100 -130.5t-145 -75.5t-175.5 -25.5h-231v-283h-219zM383 444h104q62 0 108 4.5t95.5 19.5t81 41.5t52 74t20.5 112.5q0 121 -76 182.5t-201 61.5h-184v-496z"/>
<glyph unicode="ß" horiz-adv-x="1181" d="M141 0v1047q0 204 122 327t327 123q210 0 328 -128t118 -339v-78q-28 -1 -43 -1.5t-43.5 -3t-46 -6t-42.5 -9.5t-40.5 -14.5t-33.5 -21.5t-28 -29t-17 -38.5t-7 -48.5q0 -36 21 -67.5t55 -56.5t74.5 -50.5t81.5 -55.5t75 -66t55 -88t21 -115q0 -144 -95 -224t-241 -80 q-136 0 -264 48l12 151q101 -53 203 -53q79 0 125.5 40.5t46.5 119.5q0 47 -21 85t-54.5 65t-73.5 52t-80.5 52.5t-74 59t-54.5 79t-21 106.5q0 65 26.5 115.5t72.5 81.5t99.5 48t115.5 22q0 84 -22.5 148.5t-80 107.5t-145.5 43q-126 0 -186 -85t-60 -216v-1047h-205z"/>
<glyph unicode="à" horiz-adv-x="1058" d="M66 270q0 97 43.5 168t122 112t175 60t214.5 19q69 0 100 -2v43q0 231 -234 231q-169 0 -301 -82l-12 158q71 29 163.5 48t168.5 19q416 0 416 -389v-428q0 -122 12 -227h-201l-6 162q-45 -85 -134 -135t-187 -50q-147 0 -243.5 75t-96.5 218zM264 1475h221l146 -279 h-156zM268 283q0 -79 55 -120.5t136 -41.5q71 0 123.5 26t82 72.5t43 102.5t13.5 124v56h-33q-42 0 -76 -1.5t-79.5 -6.5t-80 -13.5t-71 -25t-60 -39t-38.5 -57t-15 -76.5z"/>
<glyph unicode="á" horiz-adv-x="1058" d="M66 270q0 97 43.5 168t122 112t175 60t214.5 19q69 0 100 -2v43q0 231 -234 231q-169 0 -301 -82l-12 158q71 29 163.5 48t168.5 19q416 0 416 -389v-428q0 -122 12 -227h-201l-6 162q-45 -85 -134 -135t-187 -50q-147 0 -243.5 75t-96.5 218zM268 283q0 -79 55 -120.5 t136 -41.5q71 0 123.5 26t82 72.5t43 102.5t13.5 124v56h-33q-42 0 -76 -1.5t-79.5 -6.5t-80 -13.5t-71 -25t-60 -39t-38.5 -57t-15 -76.5zM410 1196l147 279h221l-213 -279h-155z"/>
<glyph unicode="â" horiz-adv-x="1058" d="M66 270q0 97 43.5 168t122 112t175 60t214.5 19q69 0 100 -2v43q0 231 -234 231q-169 0 -301 -82l-12 158q71 29 163.5 48t168.5 19q416 0 416 -389v-428q0 -122 12 -227h-201l-6 162q-45 -85 -134 -135t-187 -50q-147 0 -243.5 75t-96.5 218zM223 1196l211 279h189 l211 -279h-158l-148 188l-147 -188h-158zM268 283q0 -79 55 -120.5t136 -41.5q71 0 123.5 26t82 72.5t43 102.5t13.5 124v56h-33q-42 0 -76 -1.5t-79.5 -6.5t-80 -13.5t-71 -25t-60 -39t-38.5 -57t-15 -76.5z"/>
<glyph unicode="ã" horiz-adv-x="1058" d="M66 270q0 97 43.5 168t122 112t175 60t214.5 19q69 0 100 -2v43q0 231 -234 231q-169 0 -301 -82l-12 158q71 29 163.5 48t168.5 19q416 0 416 -389v-428q0 -122 12 -227h-201l-6 162q-45 -85 -134 -135t-187 -50q-147 0 -243.5 75t-96.5 218zM215 1219q2 55 23 103.5 t66 83t104 34.5q55 0 141 -41t117 -41q36 0 56.5 27t22.5 61h113q-2 -81 -55 -150t-135 -69q-58 0 -136 40t-116 40q-34 0 -61 -28t-27 -60h-113zM268 283q0 -79 55 -120.5t136 -41.5q71 0 123.5 26t82 72.5t43 102.5t13.5 124v56h-33q-42 0 -76 -1.5t-79.5 -6.5t-80 -13.5 t-71 -25t-60 -39t-38.5 -57t-15 -76.5z"/>
<glyph unicode="ä" horiz-adv-x="1058" d="M66 270q0 97 43.5 168t122 112t175 60t214.5 19q69 0 100 -2v43q0 231 -234 231q-169 0 -301 -82l-12 158q71 29 163.5 48t168.5 19q416 0 416 -389v-428q0 -122 12 -227h-201l-6 162q-45 -85 -134 -135t-187 -50q-147 0 -243.5 75t-96.5 218zM266 1235v199h172v-199 h-172zM268 283q0 -79 55 -120.5t136 -41.5q71 0 123.5 26t82 72.5t43 102.5t13.5 124v56h-33q-42 0 -76 -1.5t-79.5 -6.5t-80 -13.5t-71 -25t-60 -39t-38.5 -57t-15 -76.5zM616 1235v199h172v-199h-172z"/>
<glyph unicode="å" horiz-adv-x="1058" d="M66 270q0 97 43.5 168t122 112t175 60t214.5 19q69 0 100 -2v43q0 231 -234 231q-169 0 -301 -82l-12 158q71 29 163.5 48t168.5 19q416 0 416 -389v-428q0 -122 12 -227h-201l-6 162q-45 -85 -134 -135t-187 -50q-147 0 -243.5 75t-96.5 218zM268 283q0 -79 55 -120.5 t136 -41.5q71 0 123.5 26t82 72.5t43 102.5t13.5 124v56h-33q-42 0 -76 -1.5t-79.5 -6.5t-80 -13.5t-71 -25t-60 -39t-38.5 -57t-15 -76.5zM317 1335q0 82 59 139.5t142 57.5q82 0 141.5 -57t59.5 -140q0 -82 -59 -139t-142 -57t-142 57t-59 139zM401 1335q0 -49 34.5 -81.5 t82.5 -32.5q50 0 83.5 32.5t33.5 81.5q0 48 -34 81.5t-83 33.5t-83 -33.5t-34 -81.5z"/>
<glyph unicode="æ" horiz-adv-x="1660" d="M63 254q0 79 31 140.5t82 99t123.5 62t147.5 33.5t163 9q74 0 103 -2v76q0 111 -57.5 170t-170.5 59q-167 0 -299 -82l-12 158q71 30 162.5 48.5t167.5 18.5q251 0 330 -172q132 175 333 175q107 0 189.5 -41t132.5 -113t75 -164t25 -199v-69h-680q0 -146 85.5 -242 t230.5 -96q72 0 153.5 19.5t143.5 52.5l12 -160q-143 -55 -330 -55q-299 0 -413 202q-58 -101 -160.5 -153t-224.5 -52q-55 0 -104 9.5t-93.5 31t-76.5 53t-50.5 78.5t-18.5 105zM264 268q0 -70 57 -108.5t132 -38.5q134 0 197 80t63 217v57h-33q-91 0 -158.5 -8t-129.5 -29 t-95 -64t-33 -106zM909 588h484q0 58 -12 111.5t-37.5 101.5t-72 77t-108.5 29q-81 0 -141 -54t-86.5 -124.5t-26.5 -140.5z"/>
<glyph unicode="ç" horiz-adv-x="935" d="M80 516q0 237 143.5 382.5t380.5 145.5q140 0 268 -43l-12 -163q-113 53 -213 53q-164 0 -255 -104t-91 -271q0 -105 38 -190.5t116 -139t184 -53.5q117 0 223 47l10 -162q-112 -38 -243 -41l-60 -83q24 8 78 8q57 0 98 -35t41 -94q0 -74 -65.5 -113t-155.5 -39 q-113 0 -205 41l33 72q93 -35 150 -35q38 0 71 19.5t33 48.5q0 31 -22.5 48t-51.5 17q-44 0 -88 -16l-28 41l82 123q-215 13 -337 161t-122 375z"/>
<glyph unicode="è" horiz-adv-x="1044" d="M80 516q0 142 55.5 261t163 193t246.5 74q90 0 162.5 -27t122 -74t82.5 -113.5t48 -143.5t15 -166v-61h-682q0 -145 86 -241.5t231 -96.5q71 0 154 19.5t143 52.5l13 -160q-146 -56 -342 -56q-164 0 -277.5 69t-167 188.5t-53.5 281.5zM281 1475h221l147 -279h-157z M291 588h485q0 58 -12 111t-37 101t-71.5 76.5t-108.5 28.5q-82 0 -142.5 -53t-87 -123.5t-26.5 -140.5z"/>
<glyph unicode="é" horiz-adv-x="1044" d="M80 516q0 142 55.5 261t163 193t246.5 74q90 0 162.5 -27t122 -74t82.5 -113.5t48 -143.5t15 -166v-61h-682q0 -145 86 -241.5t231 -96.5q71 0 154 19.5t143 52.5l13 -160q-146 -56 -342 -56q-164 0 -277.5 69t-167 188.5t-53.5 281.5zM291 588h485q0 58 -12 111t-37 101 t-71.5 76.5t-108.5 28.5q-82 0 -142.5 -53t-87 -123.5t-26.5 -140.5zM432 1196l148 279h221l-213 -279h-156z"/>
<glyph unicode="ê" horiz-adv-x="1044" d="M80 516q0 142 55.5 261t163 193t246.5 74q90 0 162.5 -27t122 -74t82.5 -113.5t48 -143.5t15 -166v-61h-682q0 -145 86 -241.5t231 -96.5q71 0 154 19.5t143 52.5l13 -160q-146 -56 -342 -56q-164 0 -277.5 69t-167 188.5t-53.5 281.5zM233 1196l211 279h189l211 -279 h-158l-147 188l-148 -188h-158zM291 588h485q0 58 -12 111t-37 101t-71.5 76.5t-108.5 28.5q-82 0 -142.5 -53t-87 -123.5t-26.5 -140.5z"/>
<glyph unicode="ë" horiz-adv-x="1044" d="M80 516q0 142 55.5 261t163 193t246.5 74q90 0 162.5 -27t122 -74t82.5 -113.5t48 -143.5t15 -166v-61h-682q0 -145 86 -241.5t231 -96.5q71 0 154 19.5t143 52.5l13 -160q-146 -56 -342 -56q-164 0 -277.5 69t-167 188.5t-53.5 281.5zM279 1235v199h170v-199h-170z M291 588h485q0 58 -12 111t-37 101t-71.5 76.5t-108.5 28.5q-82 0 -142.5 -53t-87 -123.5t-26.5 -140.5zM629 1235v199h170v-199h-170z"/>
<glyph unicode="ì" horiz-adv-x="485" d="M-14 1475h223l145 -279h-155zM141 0v1024h205v-1024h-205z"/>
<glyph unicode="í" horiz-adv-x="485" d="M127 1196l147 279h222l-211 -279h-158zM141 0v1024h205v-1024h-205z"/>
<glyph unicode="î" horiz-adv-x="485" d="M-61 1196l211 279h188l211 -279h-158l-147 188l-148 -188h-157zM141 0v1024h205v-1024h-205z"/>
<glyph unicode="ï" horiz-adv-x="485" d="M-16 1235v199h170v-199h-170zM141 0v1024h205v-1024h-205zM334 1235v199h170v-199h-170z"/>
<glyph unicode="ð" horiz-adv-x="1167" d="M80 506q0 108 31 201t89 163t148.5 110t202.5 40q184 0 315 -152q-60 224 -233 357l-232 -127l-79 88l198 108q-110 67 -248 95l93 108q141 -17 307 -119l213 119l80 -88l-179 -100q301 -252 301 -736q0 -128 -32 -235.5t-93.5 -188.5t-158.5 -126.5t-221 -45.5 q-237 0 -369.5 144t-132.5 385zM301 506q0 -58 9.5 -111t31.5 -101.5t54.5 -83.5t80.5 -56t107 -21q73 0 129 31.5t88.5 85t48.5 118.5t16 138q0 71 -15 133t-47 114t-88.5 82.5t-131.5 30.5q-73 0 -129.5 -31t-89 -83t-48.5 -114t-16 -132z"/>
<glyph unicode="ñ" horiz-adv-x="1144" d="M131 1024h193l6 -180q120 200 332 200q344 0 344 -397v-647h-207v602q0 48 -4 85.5t-17 75.5t-34.5 63t-59 41t-88.5 16q-68 0 -118.5 -27.5t-78 -75.5t-40.5 -103.5t-13 -119.5v-557h-205v788q0 144 -10 236zM256 1219q2 55 23 103.5t66 83t104 34.5q55 0 141 -41 t117 -41q36 0 56.5 27t22.5 61h113q-2 -81 -55 -150t-135 -69q-58 0 -137 40t-117 40q-34 0 -60 -28t-26 -60h-113z"/>
<glyph unicode="ò" horiz-adv-x="1167" d="M80 516q0 235 138 381.5t366 146.5q239 0 371 -142.5t132 -385.5q0 -240 -133 -389.5t-370 -149.5q-239 0 -371.5 149t-132.5 390zM301 516q0 -72 16 -138t48 -122t88.5 -89.5t130.5 -33.5t130 33t88.5 88.5t48 121.5t15.5 140q0 72 -15 136t-46.5 119t-88 87.5 t-132.5 32.5q-59 0 -107.5 -22t-80.5 -58t-54 -85t-31.5 -101.5t-9.5 -108.5zM322 1475h221l145 -279h-156z"/>
<glyph unicode="ó" horiz-adv-x="1167" d="M80 516q0 235 138 381.5t366 146.5q239 0 371 -142.5t132 -385.5q0 -240 -133 -389.5t-370 -149.5q-239 0 -371.5 149t-132.5 390zM301 516q0 -72 16 -138t48 -122t88.5 -89.5t130.5 -33.5t130 33t88.5 88.5t48 121.5t15.5 140q0 72 -15 136t-46.5 119t-88 87.5 t-132.5 32.5q-59 0 -107.5 -22t-80.5 -58t-54 -85t-31.5 -101.5t-9.5 -108.5zM473 1196l148 279h221l-213 -279h-156z"/>
<glyph unicode="ô" horiz-adv-x="1167" d="M80 516q0 235 138 381.5t366 146.5q239 0 371 -142.5t132 -385.5q0 -240 -133 -389.5t-370 -149.5q-239 0 -371.5 149t-132.5 390zM276 1196l211 279h191l211 -279h-160l-147 188l-148 -188h-158zM301 516q0 -72 16 -138t48 -122t88.5 -89.5t130.5 -33.5t130 33 t88.5 88.5t48 121.5t15.5 140q0 72 -15 136t-46.5 119t-88 87.5t-132.5 32.5q-59 0 -107.5 -22t-80.5 -58t-54 -85t-31.5 -101.5t-9.5 -108.5z"/>
<glyph unicode="õ" horiz-adv-x="1167" d="M80 516q0 235 138 381.5t366 146.5q239 0 371 -142.5t132 -385.5q0 -240 -133 -389.5t-370 -149.5q-239 0 -371.5 149t-132.5 390zM262 1219q2 55 23 103.5t66 83t104 34.5q55 0 141 -41t117 -41q36 0 57 27t23 61h112q-2 -81 -55 -150t-135 -69q-58 0 -137 40t-117 40 q-34 0 -61 -28t-27 -60h-111zM301 516q0 -72 16 -138t48 -122t88.5 -89.5t130.5 -33.5t130 33t88.5 88.5t48 121.5t15.5 140q0 72 -15 136t-46.5 119t-88 87.5t-132.5 32.5q-59 0 -107.5 -22t-80.5 -58t-54 -85t-31.5 -101.5t-9.5 -108.5z"/>
<glyph unicode="ö" horiz-adv-x="1167" d="M80 516q0 235 138 381.5t366 146.5q239 0 371 -142.5t132 -385.5q0 -240 -133 -389.5t-370 -149.5q-239 0 -371.5 149t-132.5 390zM301 516q0 -72 16 -138t48 -122t88.5 -89.5t130.5 -33.5t130 33t88.5 88.5t48 121.5t15.5 140q0 72 -15 136t-46.5 119t-88 87.5 t-132.5 32.5q-59 0 -107.5 -22t-80.5 -58t-54 -85t-31.5 -101.5t-9.5 -108.5zM322 1235v199h172v-199h-172zM672 1235v199h172v-199h-172z"/>
<glyph unicode="÷" d="M53 430v162h1047v-162h-1047zM455 133q0 51 34.5 87t85.5 36t87 -36t36 -87q0 -52 -35.5 -88.5t-87.5 -36.5q-51 0 -85.5 36t-34.5 89zM455 889q0 51 34.5 87t85.5 36t87 -36t36 -87t-35.5 -87t-87.5 -36q-51 0 -85.5 35.5t-34.5 87.5z"/>
<glyph unicode="ø" horiz-adv-x="1167" d="M53 10l133 148q-104 140 -104 358q0 236 136 382t368 146q199 0 323 -100l121 133l84 -65l-127 -142q103 -136 103 -354q0 -240 -133.5 -389.5t-370.5 -149.5q-197 0 -326 107l-123 -139zM303 516q0 -117 47 -201l430 490q-73 86 -194 86q-59 0 -107.5 -22t-80.5 -58 t-54 -85t-31.5 -101.5t-9.5 -108.5zM391 225q72 -92 195 -92q73 0 129 32t88.5 87t48.5 121.5t16 142.5q0 118 -45 201z"/>
<glyph unicode="ù" horiz-adv-x="1136" d="M137 377v647h205v-604q0 -49 4 -86t16.5 -76t34 -64t59 -41t89.5 -16q68 0 118 28t77 76t40 104t13 120v559h204v-788q0 -134 11 -236h-193l-6 178q-112 -201 -330 -201q-342 0 -342 400zM313 1475h222l147 -279h-158z"/>
<glyph unicode="ú" horiz-adv-x="1136" d="M137 377v647h205v-604q0 -49 4 -86t16.5 -76t34 -64t59 -41t89.5 -16q68 0 118 28t77 76t40 104t13 120v559h204v-788q0 -134 11 -236h-193l-6 178q-112 -201 -330 -201q-342 0 -342 400zM455 1196l145 279h223l-213 -279h-155z"/>
<glyph unicode="û" horiz-adv-x="1136" d="M137 377v647h205v-604q0 -49 4 -86t16.5 -76t34 -64t59 -41t89.5 -16q68 0 118 28t77 76t40 104t13 120v559h204v-788q0 -134 11 -236h-193l-6 178q-112 -201 -330 -201q-342 0 -342 400zM262 1196l211 279h191l210 -279h-157l-148 188l-147 -188h-160z"/>
<glyph unicode="ü" horiz-adv-x="1136" d="M137 377v647h205v-604q0 -49 4 -86t16.5 -76t34 -64t59 -41t89.5 -16q68 0 118 28t77 76t40 104t13 120v559h204v-788q0 -134 11 -236h-193l-6 178q-112 -201 -330 -201q-342 0 -342 400zM307 1235v199h172v-199h-172zM657 1235v199h172v-199h-172z"/>
<glyph unicode="ý" horiz-adv-x="960" d="M18 1024h222l252 -842l245 842h209l-395 -1176q-17 -51 -35 -91.5t-46.5 -84t-62 -72t-81.5 -47t-105 -18.5t-160 21l13 157q66 -20 102 -20q37 0 69 22t54.5 58.5t36 66.5t24.5 64l21 63zM399 1196l146 279h221l-211 -279h-156z"/>
<glyph unicode="þ" horiz-adv-x="1157" d="M141 -442v1919h205v-623q37 87 125 138.5t188 51.5q91 0 163 -29t119.5 -78t79 -117.5t45 -143.5t13.5 -160q0 -105 -23.5 -198t-72 -171t-133 -124t-195.5 -46q-101 0 -186.5 50.5t-122.5 138.5v-608h-205zM340 516q0 -66 13.5 -129t41.5 -121.5t81 -94.5t124 -36 q60 0 106.5 23.5t74.5 61t46 89.5t24.5 102t6.5 105q0 71 -11 131t-37.5 117t-79.5 90t-128 33q-57 0 -102.5 -23t-75 -60t-49 -86.5t-27.5 -99.5t-8 -102z"/>
<glyph unicode="ÿ" horiz-adv-x="960" d="M18 1024h222l252 -842l245 842h209l-395 -1176q-17 -51 -35 -91.5t-46.5 -84t-62 -72t-81.5 -47t-105 -18.5t-160 21l13 157q66 -20 102 -20q37 0 69 22t54.5 58.5t36 66.5t24.5 64l21 63zM231 1235v199h170v-199h-170zM582 1235v199h170v-199h-170z"/>
<glyph unicode="Œ" horiz-adv-x="1849" d="M94 682q0 149 41.5 276t120.5 223t201.5 150.5t275.5 54.5q106 0 291 -20h717v-166h-551v-420h520v-162h-520v-452h569v-166h-735q-224 -23 -291 -23q-157 0 -280 53t-201 147.5t-118 222.5t-40 282zM326 682q0 -78 14 -152.5t45.5 -145t77.5 -123t115.5 -84.5t154.5 -32 q148 0 242 23v1030q-120 21 -242 21q-85 0 -155 -32t-116 -84.5t-77.5 -123t-45 -145t-13.5 -152.5z"/>
<glyph unicode="œ" horiz-adv-x="1820" d="M80 516q0 149 58 268t170 189.5t261 70.5q269 0 398 -210q130 210 354 210q109 0 192 -40t133.5 -111.5t75.5 -163t25 -201.5v-69h-680q0 -146 85 -242t230 -96q71 0 154 19.5t143 52.5l13 -160q-151 -56 -328 -56q-276 0 -401 211q-61 -100 -163 -155.5t-233 -55.5 q-94 0 -173 27t-136.5 76t-97.5 116.5t-60 148t-20 171.5zM293 516q0 -72 16 -138t48 -122t88 -89.5t130 -33.5q59 0 107.5 22t80.5 58.5t54 86.5t31.5 104t9.5 112q0 57 -9 109t-30 101.5t-53 85.5t-81 57.5t-110 21.5q-74 0 -130 -32.5t-88 -88t-48 -119.5t-16 -135z M1067 588h483q0 58 -12 111.5t-37 101.5t-71.5 77t-108.5 29q-81 0 -141 -54t-86.5 -124.5t-26.5 -140.5z"/>
<glyph unicode="Ÿ" horiz-adv-x="1226" d="M-4 1366h246l379 -651l374 651h238l-510 -821v-545h-223v545zM358 1524v198h170v-198h-170zM709 1524v198h170v-198h-170z"/>
<glyph unicode="ˆ" horiz-adv-x="485" d="M-61 1196l211 279h188l211 -279h-158l-147 188l-148 -188h-157z"/>
<glyph unicode="˜" horiz-adv-x="485" d="M-78 1219q2 55 23 103.5t66 83t104 34.5q55 0 141 -41t117 -41q36 0 57 27t23 61h112q-2 -81 -55 -150t-135 -69q-58 0 -136 40t-116 40q-34 0 -61 -28t-27 -60h-113z"/>
<glyph unicode=" " horiz-adv-x="910"/>
<glyph unicode=" " horiz-adv-x="1821"/>
<glyph unicode=" " horiz-adv-x="910"/>
<glyph unicode=" " horiz-adv-x="1821"/>
<glyph unicode=" " horiz-adv-x="607"/>
<glyph unicode=" " horiz-adv-x="455"/>
<glyph unicode=" " horiz-adv-x="303"/>
<glyph unicode=" " horiz-adv-x="303"/>
<glyph unicode=" " horiz-adv-x="227"/>
<glyph unicode=" " horiz-adv-x="364"/>
<glyph unicode=" " horiz-adv-x="101"/>
<glyph unicode="‐" horiz-adv-x="667" d="M82 551v168h504v-168h-504z"/>
<glyph unicode="‑" horiz-adv-x="667" d="M82 551v168h504v-168h-504z"/>
<glyph unicode="‒" horiz-adv-x="667" d="M82 551v168h504v-168h-504z"/>
<glyph unicode="–" horiz-adv-x="1024" d="M0 563v144h1024v-144h-1024z"/>
<glyph unicode="—" horiz-adv-x="2048" d="M0 563v144h2048v-144h-2048z"/>
<glyph unicode="‘" horiz-adv-x="575" d="M123 1006l178 471h154l-119 -471h-213z"/>
<glyph unicode="’" horiz-adv-x="575" d="M143 1006l119 471h213l-180 -471h-152z"/>
<glyph unicode="‚" horiz-adv-x="575" d="M123 -262l119 473h213l-181 -473h-151z"/>
<glyph unicode="“" horiz-adv-x="954" d="M123 1006l178 471h154l-119 -471h-213zM502 1006l180 471h152l-119 -471h-213z"/>
<glyph unicode="”" horiz-adv-x="954" d="M143 1006l119 471h213l-180 -471h-152zM522 1006l119 471h213l-180 -471h-152z"/>
<glyph unicode="„" horiz-adv-x="954" d="M123 -260l119 471h213l-181 -471h-151zM502 -260l121 471h211l-181 -471h-151z"/>
<glyph unicode="•" d="M319 635q0 106 75 181t181 75t181 -75t75 -181t-75 -181t-181 -75t-181 75t-75 181z"/>
<glyph unicode="…" horiz-adv-x="2048" d="M233 0v211h218v-211h-218zM915 0v211h220v-211h-220zM1597 0v211h220v-211h-220z"/>
<glyph unicode=" " horiz-adv-x="364"/>
<glyph unicode="‹" horiz-adv-x="573" d="M55 524l271 408h174l-258 -408l258 -411h-174z"/>
<glyph unicode="›" horiz-adv-x="573" d="M76 113l258 409l-258 410h176l268 -410l-268 -409h-176z"/>
<glyph unicode=" " horiz-adv-x="455"/>
<glyph unicode="€" d="M61 489l27 113h141q-4 54 -4 82t4 78h-166l27 112h156q22 108 72 201t123 162.5t171.5 109t210.5 39.5q149 0 273 -53l-39 -166q-92 47 -207 47q-148 0 -243.5 -94.5t-133.5 -245.5h526l-26 -112h-522q-5 -67 -5 -80q0 -12 5 -80h491l-24 -113h-445q34 -149 130 -242 t245 -93q128 0 211 45l12 -174q-91 -48 -248 -48q-232 0 -384.5 140t-194.5 372h-183z"/>
<glyph unicode="™" horiz-adv-x="1955" d="M12 1243v123h713v-123h-274v-698h-166v698h-273zM840 545v821h250l262 -653l252 653h249v-821h-155v717l-279 -717h-147l-283 717v-717h-149z"/>
<glyph unicode="" horiz-adv-x="1024" d="M0 0v1024h1024v-1024h-1024z"/>
<glyph unicode="ﬁ" horiz-adv-x="1159" d="M39 874v150h194v119q0 55 7.5 102t28 95t53.5 81.5t88.5 54.5t128.5 21q104 0 161 -22l-12 -150q-47 18 -100 18q-144 0 -144 -198v-121h226v-150h-224v-874h-213v874h-194zM813 0v1024h207v-1024h-207zM813 1235v199h207v-199h-207z"/>
<glyph unicode="ﬂ" horiz-adv-x="1159" d="M39 874v150h194v119q0 55 7.5 102t28 95t53.5 81.5t88.5 54.5t128.5 21q104 0 161 -22l-12 -150q-47 18 -100 18q-144 0 -144 -198v-121h226v-150h-224v-874h-213v874h-194zM813 0v1477h207v-1477h-207z"/>
</font>
</defs>
</svg>
